<?xml version="1.0" standalone="no"?>
<!DOCTYPE svg PUBLIC "-//W3C//DTD SVG 20010904//EN"
 "http://www.w3.org/TR/2001/REC-SVG-20010904/DTD/svg10.dtd">
<svg version="1.0" xmlns="http://www.w3.org/2000/svg"
 width="230.000000pt" height="230.000000pt" viewBox="0 0 230.000000 230.000000"
 preserveAspectRatio="xMidYMid meet">
<metadata>
Created by potrace 1.14, written by Peter Selinger 2001-2017
</metadata>
<g transform="translate(0.000000,230.000000) scale(0.100000,-0.100000)"
fill="#000000" stroke="none">
<path d="M0 1145 l0 -1145 1150 0 1150 0 0 1145 0 1145 -1150 0 -1150 0 0
-1145z m1430 423 c-10 -24 -114 -245 -229 -493 l-210 -450 -67 -3 c-51 -2 -65
0 -61 10 8 21 448 962 454 970 2 5 33 8 68 8 l64 0 -19 -42z m-690 -221 l0
-73 -220 -78 c-121 -44 -222 -82 -225 -86 -2 -3 97 -42 220 -86 l225 -79 0
-73 c0 -65 -2 -73 -17 -68 -10 3 -148 57 -308 120 l-290 113 -3 71 -3 70 273
107 c150 59 287 114 303 121 17 7 33 13 38 13 4 1 7 -32 7 -72z m1075 -22
c121 -47 255 -100 298 -117 l78 -30 -3 -69 -3 -70 -303 -120 c-167 -65 -306
-119 -308 -119 -2 0 -4 33 -4 73 l0 72 225 80 c123 44 221 82 217 86 -4 4
-105 42 -224 85 l-218 77 0 75 c0 55 3 73 13 69 6 -3 111 -44 232 -92z"/>
</g>
</svg>
