<svg xmlns="http://www.w3.org/2000/svg" viewBox="0 0 154.46 230.26"><path d="M35.26 131.15l14.19-40.18 13.82 40.18H35.26zm34.55-85.88c.83 2.49 1.25 4.76 1.25 6.75 0 1.91-.33 3.4-3.34 5.94-9.86 6.97-19.02 11.55-27.52 13.57v.02c-1 .15-.87.56-.87 1.03 0 .22.15.62.16.62.1.12.18.26.32.33 2.78 2.39 4.79 5.21 6.17 8.66l-25.7 70.66C16 164.59 11.69 170 2.4 171.05c-1.27.07-2.4 1.14-2.4 2.42 0 1.29 1.15 2.67 2.15 2.73h33.04c2-.07 2.47-1.46 2.47-2.74s-.89-2.36-2.14-2.45c-6.23-.73-9.47-4-9.47-9.79 0-2.67.7-5.78 1.55-8.29l5.35-15.77h32.34l6.49 19.28c.83 2.49 1.33 4.72 1.33 6.71 0 5.08-3.19 7.73-9.65 7.99-1.31 0-2.36 1.23-2.36 2.52 0 1.3 1.05 2.53 2.36 2.53h43.22c2.03 0 6.69-.09 9.06 2.28 1.04 1.04 2.58 4.24 3.67 7.23l15.89 44.55h3L57.91 0h-3l14.9 45.27zm59.77 82.65c.29 1.46 1.39 2.67 2.87 2.67 1.46 0 2.85-1.21 2.85-2.67V96.43c0-1.49-1.39-2.7-2.87-2.7-1.49 0-2.47 1.06-2.8 2.67-1.82 8.48-8.04 11.86-19.86 11.86h-8.64l1.95 5.54 6.65.03c11.79.77 18.18 5.13 19.85 14.09m24.69-43.78c-3.59-7.88-6.25-17.46-8.53-28.16-2.99 3-8.47 4.28-16.65 4.28H84.42l2.45 7h25.76c16.18 0 27.07 5.43 36.53 18.87l.04.06c.43.98 1.39 1.69 2.52 1.69 1.51 0 2.75-1.22 2.75-2.73-.01-.36-.08-.68-.2-1.01"/></svg>